{"title":"American Pickers S07E19 Great Minds Ink Alike HDTV XviD-AFG","uid":11994793,"size":443264768,"categoryP":"video","categoryS":"tv_shows","magnet":"?xt=urn:btih:359255b8d2baeac17aba85630f27d5923bbde901&amp;dn=American+Pickers+S07E19+Great+Minds+Ink+Alike+HDTV+XviD-AFG&amp;tr=udp%3A%2F%2Ftracker.openbittorrent.com%3A80&amp;tr=udp%3A%2F%2Fopen.demonii.com%3A1337&amp;tr=udp%3A%2F%2Ftracker.coppersurfer.tk%3A6969&amp;tr=udp%3A%2F%2Fexodus.desync.com%3A6969","seeders":1,"leechers":0,"uploader":"toots2boots","files":1,"time":1433601760,"description":"American.Pickers.S07E19.Great.Minds.Ink.Alike.HDTV.XviD-AFG.avi\t422.73 MB\nDescription\nSome confusion re-Season and episode naming.8/5 is the correct label.\nAmerican Pickers S08E05 Great Minds Ink Alike HDTV XviD-AFG\nSeason 8 Episode 5:\nGreat Minds Ink Alike\nDanielle calls the shots from HQ when the guys get in over their heads; Frank makes a side deal that leaves a permanent mark.\n\nGeneral\nComplete name                            : M:PostsAmerican Pickers S07E19 Great Minds Ink Alike HDTV XviD-AFGAmerican.Pickers.S07E19.Great.Minds.Ink.Alike.HDTV.XviD-AFG.avi\nFormat                                   : AVI\nFormat/Info                              : Audio Video Interleave\nFile size                                : 423 MiB\nDuration                                 : 41mn 58s\nOverall bit rate mode                    : Variable\nOverall bit rate                         : 1 408 Kbps\n\nVideo\nID                                       : 0\nFormat                                   : MPEG-4 Visual\nFormat profile                           : Advanced Simple@L5\nFormat settings, BVOP                    : 2\nFormat settings, QPel                    : No\nFormat settings, GMC                     : No warppoints\nFormat settings, Matrix                  : Default (H.263)\nCodec ID                                 : XVID\nCodec ID/Hint                            : XviD\nDuration                                 : 41mn 58s\nBit rate                                 : 1 266 Kbps\nWidth                                    : 640 pixels\nHeight                                   : 360 pixels\nDisplay aspect ratio                     : 16:9\nFrame rate                               : 29.970 fps\nColor space                              : YUV\nChroma subsampling                       : 4:2:0\nBit depth                                : 8 bits\nScan type                                : Progressive\nCompression mode                         : Lossy\nBits/(Pixel*Frame)                       : 0.183\nStream size                              : 380 MiB (90%)\nWriting library                          : XviD 64\n\nAudio\nID                                       : 1\nFormat                                   : MPEG Audio\nFormat version                           : Version 1\nFormat profile                           : Layer 3\nMode                                     : Joint stereo\nMode extension                           : MS Stereo\nCodec ID                                 : 55\nCodec ID/Hint                            : MP3\nDuration                                 : 41mn 58s\nBit rate mode                            : Variable\nBit rate                                 : 128 Kbps\nChannel(s)                               : 2 channels\nSampling rate                            : 48.0 KHz\nCompression mode                         : Lossy\nStream size                              : 38.4 MiB (9%)\nAlignment                                : Aligned on interleaves\nInterleave, duration                     : 24 ms (0.72 video frame)\nInterleave, preload duration             : 178 ms\nTitle                                    : American.Pickers.S07E19.Great.Minds.Ink.Alike.HDTV.XviD-AFG_360p.audio","torrent":{"xt":"urn:btih:359255b8d2baeac17aba85630f27d5923bbde901","amp;dn":"American+Pickers+S07E19+Great+Minds+Ink+Alike+HDTV+XviD-AFG","amp;tr":["udp%3A%2F%2Ftracker.openbittorrent.com%3A80","udp%3A%2F%2Fopen.demonii.com%3A1337","udp%3A%2F%2Ftracker.coppersurfer.tk%3A6969","udp%3A%2F%2Fexodus.desync.com%3A6969"],"infoHash":"359255b8d2baeac17aba85630f27d5923bbde901","infoHashBuffer":{"type":"Buffer","data":[53,146,85,184,210,186,234,193,122,186,133,99,15,39,213,146,59,189,233,1]},"announce":[],"urlList":[]}}